<svg version="1.1" xmlns="http://www.w3.org/2000/svg" xmlns:xlink="http://www.w3.org/1999/xlink" width="64" height="64" viewBox="0,0,256,256"><defs><linearGradient x1="0" y1="128" x2="128" y2="0" gradientUnits="userSpaceOnUse" id="color-1"><stop offset="0" stop-color="#125eb6"></stop><stop offset="1" stop-color="#5d5d5d"></stop></linearGradient></defs><g fill="url(#color-1)" fill-rule="nonzero" stroke="none" stroke-width="1" stroke-linecap="butt" stroke-linejoin="miter" stroke-miterlimit="10" stroke-dasharray="" stroke-dashoffset="0" font-family="none" font-weight="none" font-size="none" text-anchor="none" style="mix-blend-mode: normal"><g transform="translate(0,-1.29611) scale(2,2)"><path d="M24.82717,12.26882v3.1249h5.50577v37.05236h-5.50577v3.0505h34.67149v-10.78834h-3.57131v7.29143h-19.71662v-36.60595h5.50577v-3.1249zM81.74496,15.54252l-15.47569,40.17726h-3.79452v3.1249h12.20198v-3.1249h-4.76175l3.64571,-9.4491h18.15417l3.64571,9.4491h-4.83615v3.1249h15.7733v-3.1249h-4.24094l-15.47568,-40.17726zM82.71219,22.53634l7.88665,20.60945h-15.8477zM12.47638,59.14229v10.19312h3.57131v-6.69621h12.7228v36.75475h-5.50577v3.05049h16.88933v-3.05049h-5.50577v-36.75475h12.7228v6.69621h3.49691v-10.19312zM74.08152,62.19278v3.0505h4.61294l12.6484,18.97259l-12.42519,18.15417h-4.98496v3.0505h14.28525v-3.0505h-5.58017l10.56513,-15.47568l10.34192,15.47568h-5.13376v3.0505h17.11254v-3.0505h-4.61295l-13.69003,-20.46064l11.45796,-16.66612h4.91056v-3.0505h-14.21085v3.0505h5.58018l-9.5235,13.98764l-9.30029,-13.98764h5.13376v-3.0505zM42.08851,73.79955v3.0505h5.50577v37.12677h-5.50577v3.05049h35.34111v-9.5979h-3.57131v6.02659h-20.31184v-18.07977h14.13644v5.43137h3.57131v-14.43405h-3.57131v5.43137h-14.13644v-14.50845h19.86542v6.10099h3.57131v-9.5979z"></path></g></g></svg>