<svg xmlns="http://www.w3.org/2000/svg" viewBox="0 0 24 24"><linearGradient id="a" x1="9.951" x2="12.617" y1="10.505" y2="11.755" gradientUnits="userSpaceOnUse"><stop offset="0" stop-color="#74d1c9"/><stop offset="1" stop-color="#e97500"/></linearGradient><path fill="url(#a)" d="M5.812 16.626s.596-.147 1.193.147c1.193.44 1.789 2.056 2.236 3.23.298.881.745 1.616 1.043 2.496 1.193-.293 1.938-.734 2.683-1.469.745-.735 1.491-1.616 2.236-2.35 1.342-1.616 2.981-3.672 5.068-2.643.298.147.745.44.894.587.447.294.745.587 1.193 1.028.745.587 1.043 1.028 1.64 1.322-1.491-2.937-2.534-5.875-3.727-8.958l.002.002c-.447-1.175-.745-2.35-1.193-3.525-.447-1.322-.894-2.497-1.64-3.525-.298-.44-.894-1.469-1.64-1.469-.149 0-.298.147-.447.147-.447.147-1.043 1.028-1.193 1.616-.447.734-1.342 1.909-1.938 2.643-.149.294-.447.587-.596.734-.447.294-.894.734-1.491 1.028-.149 0-.298.147-.447.147-.447 0-.745.294-1.043.44-.447.44-.894 1.028-1.342 1.469 0 .147-.149.294-.298.44l2.236 1.616c1.64-1.909 3.578-3.819 4.919-7.489 0 0-.447 3.965-4.025 8.224-2.235 2.497-4.025 3.819-4.323 4.112z"/><path fill="#74D1C9" d="M4.323 16.186c.895-.734 2.087-1.468 3.876-3.524L5.814 10.9 0 13.102c1.64 1.175 3.13 2.203 4.323 3.084z"/></svg>